<?xml version="1.0" encoding="utf-8"?>
<!-- Uploaded to: SVG Repo, www.svgrepo.com, Generator: SVG Repo Mixer Tools -->
<svg width="800px" height="800px" viewBox="0 0 256 256" xmlns="http://www.w3.org/2000/svg">
<defs>
<style>.cls-1{fill:#cbecf9;}.cls-2{fill:#ffffff;}.cls-3{fill:#90fc95;}.cls-4{fill:#2fb1ea;}.cls-5{fill:#e5f5fc;}.cls-6{fill:#1a96e2;}.cls-7{fill:#ffc444;}.cls-8{fill:#ffe76e;}.cls-9{fill:#d4ffd4;}.cls-10{fill:#ffbdbd;}.cls-11{fill:#bbf1ff;}.cls-12{fill:#fff4c5;}</style>
</defs>
<title>business economic finance interprise company search</title>
<g id="Layer_2" data-name="Layer 2">
<path class="cls-1" d="M156,73.48h28.74V188.74a12,12,0,0,1-12,12H61.09a12,12,0,0,1-12-12v-144a12,12,0,0,1,12-12h83V61.48A12,12,0,0,0,156,73.48Z"/>
<path class="cls-2" d="M156,73.48h28.74V176.17a12,12,0,0,1-12,12H61.09a12,12,0,0,1-12-12V44.74a12,12,0,0,1,12-12h83V61.48A12,12,0,0,0,156,73.48Z"/>
<rect class="cls-3" x="109.89" y="40.44" width="14.09" height="91.64" rx="7.04" ry="7.04" transform="translate(203.2 -30.67) rotate(90)"/>
<rect class="cls-3" x="94.33" y="76.33" width="14.09" height="60.51" rx="7.04" ry="7.04" transform="translate(207.96 5.21) rotate(90)"/>
<rect class="cls-3" x="88.52" y="102.46" width="14.09" height="48.89" rx="7.04" ry="7.04" transform="translate(222.47 31.34) rotate(90)"/>
<rect class="cls-3" x="105.41" y="105.89" width="14.09" height="82.67" rx="7.04" ry="7.04" transform="translate(259.68 34.77) rotate(90)"/>
<path class="cls-1" d="M184.79,81.4H156a12,12,0,0,1-12-12V40.66l40.74,32.82Z"/>
<path class="cls-4" d="M172.79,202.74H61.09a14,14,0,0,1-14-14v-144a14,14,0,0,1,14-14h83a2,2,0,0,1,2,2V61.48a10,10,0,0,0,10,10h28.74a2,2,0,0,1,2,2V188.74A14,14,0,0,1,172.79,202.74Zm-111.7-168a10,10,0,0,0-10,10v144a10,10,0,0,0,10,10h111.7a10,10,0,0,0,10-10V75.48H156a14,14,0,0,1-14-14V34.74Z"/>
<path class="cls-5" d="M184.79,73.48H156a12,12,0,0,1-12-12V32.74Z"/>
<path class="cls-4" d="M184.79,75.48H156a14,14,0,0,1-14-14V32.74a2,2,0,0,1,3.41-1.41L186.2,72.07a2,2,0,0,1-1.41,3.41ZM146,37.57V61.48a10,10,0,0,0,10,10H180Z"/>
<path class="cls-4" d="M198.67,223.5,157.18,182a6,6,0,0,1,8.49-8.49L207.16,215a6,6,0,0,1-8.49,8.49Z"/>
<path class="cls-6" d="M172.48,180.34l-6.82-6.82a6,6,0,0,0-8.49,8.49l6.82,6.82A52.44,52.44,0,0,0,172.48,180.34Z"/>
<circle class="cls-7" cx="131.74" cy="148.08" r="42"/>
<circle class="cls-8" cx="131.74" cy="144.77" r="38.69"/>
<path class="cls-4" d="M131.74,192.08a44,44,0,1,1,44-44A44,44,0,0,1,131.74,192.08Zm0-84a40,40,0,1,0,40,40A40,40,0,0,0,131.74,108.08Z"/>
<circle class="cls-7" cx="131.74" cy="145.5" r="32.87"/>
<circle class="cls-2" cx="131.74" cy="148.08" r="30.29"/>
<path class="cls-3" d="M121.05,127.35a9.39,9.39,0,0,0-2.6-6.49,30.39,30.39,0,0,0-14.81,15.93h8A9.43,9.43,0,0,0,121.05,127.35Z"/>
<path class="cls-3" d="M162,146.66a9.38,9.38,0,0,0-5.14-1.53H101.59c-.09,1-.14,2-.14,2.95A30.14,30.14,0,0,0,106,164h50.88c.23,0,.45,0,.67,0a30.14,30.14,0,0,0,4.5-15.89C162,147.6,162,147.13,162,146.66Z"/>
<path class="cls-4" d="M131.74,180.37A32.29,32.29,0,1,1,164,148.08,32.32,32.32,0,0,1,131.74,180.37Zm0-60.58A28.29,28.29,0,1,0,160,148.08,28.32,28.32,0,0,0,131.74,119.79Z"/>
<circle class="cls-9" cx="194" cy="44" r="5"/>
<circle class="cls-9" cx="39" cy="142" r="4"/>
<circle class="cls-9" cx="33" cy="47" r="3"/>
<circle class="cls-9" cx="202" cy="107" r="2"/>
<circle class="cls-9" cx="229" cy="227" r="1"/>
<circle class="cls-10" cx="215" cy="249" r="5"/>
<circle class="cls-10" cx="207" cy="179" r="4"/>
<circle class="cls-10" cx="68" cy="237" r="3"/>
<circle class="cls-10" cx="206" cy="18" r="2"/>
<circle class="cls-10" cx="110" cy="19" r="1"/>
<circle class="cls-11" cx="28" cy="105" r="5"/>
<circle class="cls-11" cx="118" cy="244" r="4"/>
<circle class="cls-11" cx="215" cy="125" r="3"/>
<circle class="cls-11" cx="200" cy="80" r="2"/>
<circle class="cls-11" cx="31" cy="213" r="1"/>
<circle class="cls-12" cx="57" cy="7" r="5"/>
<circle class="cls-12" cx="170" cy="21" r="4"/>
<circle class="cls-12" cx="33" cy="176" r="3"/>
<circle class="cls-12" cx="44" cy="80" r="2"/>
<circle class="cls-12" cx="232" cy="158" r="1"/>
</g>
</svg>